# xmcd
#
# Track frame offsets: 
#        150
#        11952
#        25630
#        40592
#        54845
#        72275
#        83777
#        96287
#        114137
#        126292
#        143562
#
# Disc length: 2121 seconds
#
# Revision: 1
# Processed by: cddbd v1.5.2PL0 Copyright (c) Steve Scherf et al.
# Submitted via: ExactAudioCopy v0.99pb3
#
DISCID=8208470b
DTITLE=The Bluegrass Album Band - Volume V, Sweet Sunny South
DYEAR=1989
DGENRE=Bluegrass
TTITLE0=Rock Hearts
TTITLE1=Big Black Train
TTITLE2=Thinking About You
TTITLE3=Out In The Cold World
TTITLE4=On The Old Kentucky Shore
TTITLE5=Preaching Praying Singing
TTITLE6=Someone Took My Place With You
TTITLE7=Foggy Mountain Rock
TTITLE8=My Home's Accross The Blue Ridge Mountains
TTITLE9=Along About Daybreak
TTITLE10=Sweet Sonny South
EXTD=
EXTT0=
EXTT1=
EXTT2=
EXTT3=
EXTT4=
EXTT5=
EXTT6=
EXTT7=
EXTT8=
EXTT9=
EXTT10=
PLAYORDER=
